#!OML:ASF X:\für Bonn\!DataBase\2005_08_12_Daniel\c3d\Daniel.ASF
:FULLY-SPECIFIED
:DEGREES
110
root -2.89062 8.45539 -2.99927 307.202 -80.4746 -330.926
lowerback 55.8876 -3.93814 0.421163
upperback 5.09045 -6.81801 -3.91722
thorax -16.2639 -3.41196 -1.00875
lowerneck 11.5144 2.36791 -3.69304
upperneck -5.42405 2.59154 0.0344935
head -3.90222 1.36001 0.490489
rclavicle -3.63776e-014 -2.90226e-014
rhumerus 69.4917 3.49888 -82.7767
rradius 9.64989
rwrist 47.6923
rhand -30.0624 14.5658
rfingers 7.12502
rthumb -3.37768 -15.3872
lclavicle -3.63776e-014 -2.90226e-014
lhumerus 71.0778 -2.0393 85.6775
lradius 7.47327
lwrist -58.989
lhand -20.8489 1.48866
lfingers 7.12502
lthumb 5.52026 31.3968
rfemur 26.9204 -63.2803 -120.789
rtibia 147.538
rfoot -39.9461 49.2433
rtoes -8.9155
lfemur -71.7183 32.6675 -7.14962
ltibia 140.971
lfoot -19.228 -29.6875
ltoes -3.61455
111
root -2.87389 8.66196 -3.00122 307.29 -80.4138 -330.294
lowerback 55.6432 -3.94113 0.377685
upperback 4.94028 -6.82367 -3.93345
thorax -16.4245 -3.39649 -1.00277
lowerneck 11.5506 2.34359 -3.72829
upperneck -5.53771 2.5421 -0.0702247
head -3.94778 1.34289 0.464349
rclavicle -1.21259e-014 1.35174e-014
rhumerus 69.565 3.47567 -82.8628
rradius 9.68501
rwrist 47.4592
rhand -30.1571 14.6292
rfingers 7.12502
rthumb -3.46916 -15.3223
lclavicle -1.21259e-014 1.35174e-014
lhumerus 71.2746 -2.02758 85.6919
lradius 7.44935
lwrist -59.1955
lhand -21.1135 1.55238
lfingers 7.12502
lthumb 5.26481 31.467
rfemur 20.5138 -66.136 -111.156
rtibia 146.022
rfoot -35.7777 47.4772
rtoes -8.9555
lfemur -71.3563 30.1824 -8.84003
ltibia 139.428
lfoot -19.4627 -27.3953
ltoes -4.22238
112
root -2.86014 8.86923 -3.00304 307.452 -80.3555 -329.783
lowerback 55.3892 -3.95417 0.36828
upperback 4.81155 -6.82402 -3.95684
thorax -16.5607 -3.3822 -1.0238
lowerneck 11.5617 2.30705 -3.77518
upperneck -5.628 2.47575 -0.171813
head -3.98006 1.3173 0.442884
rclavicle -5.88403e-014 -2.3059e-014
rhumerus 69.6613 3.43552 -82.9494
rradius 9.69134
rwrist 47.2598
rhand -30.2181 14.6627
rfingers 7.12502
rthumb -3.52803 -15.2878
lclavicle -5.88403e-014 -2.3059e-014
lhumerus 71.4681 -2.04587 85.7102
lradius 7.4843
lwrist -59.5269
lhand -21.3239 1.72703
lfingers 7.12502
lthumb 5.06162 31.6466
rfemur 11.0557 -68.2942 -98.604
rtibia 144.476
rfoot -31.7833 45.4919
rtoes -8.93759
lfemur -70.8484 27.9222 -10.2551
ltibia 137.855
lfoot -19.6251 -25.3747
ltoes -4.78129
113
root -2.8513 9.07781 -3.00521 307.656 -80.305 -329.368
lowerback 55.1443 -3.95586 0.333664
upperback 4.69033 -6.82436 -3.96377
thorax -16.6835 -3.36803 -1.0151
lowerneck 11.5499 2.25478 -3.71651
upperneck -5.6852 2.39618 -0.379156
head -3.99185 1.28735 0.368352
rclavicle 5.74488e-014 2.90226e-014
rhumerus 69.7464 3.41108 -83.0357
rradius 9.72248
rwrist 47.1452
rhand -30.1847 14.6651
rfingers 7.12502
rthumb -3.49582 -15.2859
lclavicle 5.74488e-014 2.90226e-014
lhumerus 71.6602 -2.03677 85.7253
lradius 7.53558
lwrist -59.8629
lhand -21.4277 1.84811
lfingers 7.12502
lthumb 4.96139 31.77
rfemur -1.0384 -69.2989 -83.4934
rtibia 142.86
rfoot -27.9644 43.2942
rtoes -8.73277
lfemur -70.1975 25.9191 -11.4229
ltibia 136.26
lfoot -19.7113 -23.6163
ltoes -5.26208
114
root -2.84833 9.28771 -3.00687 307.845 -80.2576 -328.981
lowerback 54.8759 -3.94874 0.290011
upperback 4.58174 -6.81922 -3.96647
thorax -16.7861 -3.35246 -1.00108
lowerneck 11.579 2.19989 -3.59641
upperneck -5.76941 2.31561 -0.636765
head -4.01994 1.2583 0.265477
rclavicle 4.25399e-014 -8.74653e-015
rhumerus 69.7822 3.38362 -83.1176
rradius 9.80338
rwrist 47.1138
rhand -30.0851 14.5782
rfingers 7.12502
rthumb -3.3996 -15.3744
lclavicle 4.25399e-014 -8.74653e-015
lhumerus 71.8583 -2.02523 85.7443
lradius 7.56839
lwrist -60.168
lhand -21.4727 2.0007
lfingers 7.12502
lthumb 4.91792 31.9236
rfemur -13.6517 -68.8409 -68.0258
rtibia 141.19
rfoot -24.3763 41.0839
rtoes -8.33049
lfemur -69.3833 24.1081 -12.3877
ltibia 134.625
lfoot -19.7607 -22.1069
ltoes -5.63201
115
root -2.84867 9.49757 -3.0094 308.02 -80.182 -328.607
lowerback 54.5656 -3.93199 0.216085
upperback 4.50115 -6.81963 -3.96356
thorax -16.8461 -3.33986 -0.96561
lowerneck 11.5914 2.14643 -3.48599
upperneck -5.84206 2.23809 -0.872135
head -4.04165 1.2298 0.171752
rclavicle 1.07344e-014 -2.0276e-014
rhumerus 69.8183 3.37957 -83.2001
rradius 9.91376
rwrist 47.2297
rhand -29.9765 14.4169
rfingers 7.12502
rthumb -3.29472 -15.5374
lclavicle 1.07344e-014 -2.0276e-014
lhumerus 72.112 -2.00297 85.7676
lradius 7.56565
lwrist -60.4445
lhand -21.4294 2.1228
lfingers 7.12502
lthumb 4.95977 32.0448
rfemur -24.855 -67.0582 -54.1194
rtibia 139.488
rfoot -21.1477 38.7172
rtoes -7.95613
lfemur -68.5391 22.4508 -13.2543
ltibia 132.975
lfoot -19.7107 -20.7642
ltoes -5.87283
116
root -2.85159 9.70546 -3.01119 308.241 -80.1306 -328.328
lowerback 54.2731 -3.91638 0.161211
upperback 4.4112 -6.80865 -3.95193
thorax -16.9178 -3.32322 -0.934281
lowerneck 11.6341 2.09721 -3.40156
upperneck -5.88098 2.16124 -1.10117
head -4.05837 1.20142 0.084636
rclavicle 3.85642e-014 1.35174e-014
rhumerus 69.7984 3.39735 -83.2794
rradius 10.0481
rwrist 47.3764
rhand -29.8059 14.1901
rfingers 7.12502
rthumb -3.12998 -15.7667
lclavicle 3.85642e-014 1.35174e-014
lhumerus 72.3331 -1.98372 85.8041
lradius 7.54652
lwrist -60.662
lhand -21.3243 2.19245
lfingers 7.12502
lthumb 5.06122 32.112
rfemur -33.6435 -64.242 -42.7198
rtibia 137.778
rfoot -18.5703 36.1429
rtoes -7.60864
lfemur -67.6189 20.9988 -13.9338
ltibia 131.321
lfoot -19.5142 -19.6912
ltoes -5.9898
